<svg xmlns="http://www.w3.org/2000/svg" width="1024" height="1024" viewBox="0 0 512 512" role="img" aria-label="Humm dial mark">
  <defs>
    <clipPath id="tile-clip"><rect x="0" y="0" width="512" height="512"/></clipPath>
    <radialGradient id="bg" cx="50%" cy="48%" r="72%">
      <stop offset="0%" stop-color="#171236" stop-opacity="0.92"/>
      <stop offset="62%" stop-color="#0e0a21" stop-opacity="0.98"/>
      <stop offset="100%" stop-color="#090713"/>
    </radialGradient>
  </defs>

  <g clip-path="url(#tile-clip)">
    <rect width="512" height="512" fill="#090713"/>
    <rect width="512" height="512" fill="url(#bg)"/>

    <g opacity="0.62">
      <linearGradient id="g1" gradientUnits="userSpaceOnUse" x1="256.000" y1="86.000" x2="296.407" y2="90.872"><stop offset="0" stop-color="rgb(48 39 105)" stop-opacity="0.0014"/><stop offset="1" stop-color="rgb(48 39 105)" stop-opacity="0.0811"/></linearGradient>
      <path d="M 256.000 86.000 A 170 170 0 0 1 296.407 90.872" fill="none" stroke="url(#g1)" stroke-width="24" stroke-linecap="butt"/>
      <linearGradient id="g2" gradientUnits="userSpaceOnUse" x1="296.407" y1="90.872" x2="334.497" y2="105.208"><stop offset="0" stop-color="rgb(48 39 105)" stop-opacity="0.0839"/><stop offset="1" stop-color="rgb(48 39 105)" stop-opacity="0.1636"/></linearGradient>
      <path d="M 296.407 90.872 A 170 170 0 0 1 334.497 105.208" fill="none" stroke="url(#g2)" stroke-width="24" stroke-linecap="butt"/>
      <linearGradient id="g3" gradientUnits="userSpaceOnUse" x1="334.497" y1="105.208" x2="368.089" y2="128.187"><stop offset="0" stop-color="rgb(48 39 105)" stop-opacity="0.1664"/><stop offset="1" stop-color="rgb(48 39 105)" stop-opacity="0.2461"/></linearGradient>
      <path d="M 334.497 105.208 A 170 170 0 0 1 368.089 128.187" fill="none" stroke="url(#g3)" stroke-width="24" stroke-linecap="butt"/>
      <linearGradient id="g4" gradientUnits="userSpaceOnUse" x1="368.089" y1="128.187" x2="395.256" y2="158.492"><stop offset="0" stop-color="rgb(48 39 105)" stop-opacity="0.2489"/><stop offset="1" stop-color="rgb(48 39 105)" stop-opacity="0.3286"/></linearGradient>
      <path d="M 368.089 128.187 A 170 170 0 0 1 395.256 158.492" fill="none" stroke="url(#g4)" stroke-width="24" stroke-linecap="butt"/>
      <linearGradient id="g5" gradientUnits="userSpaceOnUse" x1="395.256" y1="158.492" x2="414.441" y2="194.386"><stop offset="0" stop-color="rgb(48 39 105)" stop-opacity="0.3314"/><stop offset="1" stop-color="rgb(48 39 105)" stop-opacity="0.3600"/></linearGradient>
      <path d="M 395.256 158.492 A 170 170 0 0 1 414.441 194.386" fill="none" stroke="url(#g5)" stroke-width="24" stroke-linecap="butt"/>
      <linearGradient id="g6" gradientUnits="userSpaceOnUse" x1="414.441" y1="194.386" x2="424.546" y2="233.811"><stop offset="0" stop-color="rgb(48 39 105)" stop-opacity="0.3600"/><stop offset="1" stop-color="rgb(48 39 105)" stop-opacity="0.3600"/></linearGradient>
      <path d="M 414.441 194.386 A 170 170 0 0 1 424.546 233.811" fill="none" stroke="url(#g6)" stroke-width="24" stroke-linecap="butt"/>
      <linearGradient id="g7" gradientUnits="userSpaceOnUse" x1="424.546" y1="233.811" x2="424.990" y2="274.507"><stop offset="0" stop-color="rgb(48 39 105)" stop-opacity="0.3600"/><stop offset="1" stop-color="rgb(48 39 105)" stop-opacity="0.3600"/></linearGradient>
      <path d="M 424.546 233.811 A 170 170 0 0 1 424.990 274.507" fill="none" stroke="url(#g7)" stroke-width="24" stroke-linecap="butt"/>
      <linearGradient id="g8" gradientUnits="userSpaceOnUse" x1="424.990" y1="274.507" x2="415.748" y2="314.143"><stop offset="0" stop-color="rgb(48 39 105)" stop-opacity="0.3600"/><stop offset="1" stop-color="rgb(48 39 105)" stop-opacity="0.3600"/></linearGradient>
      <path d="M 424.990 274.507 A 170 170 0 0 1 415.748 314.143" fill="none" stroke="url(#g8)" stroke-width="24" stroke-linecap="butt"/>
      <linearGradient id="g9" gradientUnits="userSpaceOnUse" x1="415.748" y1="314.143" x2="397.350" y2="350.447"><stop offset="0" stop-color="rgb(48 39 105)" stop-opacity="0.3600"/><stop offset="1" stop-color="rgb(48 39 105)" stop-opacity="0.3600"/></linearGradient>
      <path d="M 415.748 314.143 A 170 170 0 0 1 397.350 350.447" fill="none" stroke="url(#g9)" stroke-width="24" stroke-linecap="butt"/>
      <linearGradient id="g10" gradientUnits="userSpaceOnUse" x1="397.350" y1="350.447" x2="370.850" y2="381.337"><stop offset="0" stop-color="rgb(48 39 105)" stop-opacity="0.3600"/><stop offset="1" stop-color="rgb(48 39 105)" stop-opacity="0.3600"/></linearGradient>
      <path d="M 397.350 350.447 A 170 170 0 0 1 370.850 381.337" fill="none" stroke="url(#g10)" stroke-width="24" stroke-linecap="butt"/>
      <linearGradient id="g11" gradientUnits="userSpaceOnUse" x1="370.850" y1="381.337" x2="337.768" y2="405.044"><stop offset="0" stop-color="rgb(48 39 105)" stop-opacity="0.3600"/><stop offset="1" stop-color="rgb(48 39 105)" stop-opacity="0.3600"/></linearGradient>
      <path d="M 370.850 381.337 A 170 170 0 0 1 337.768 405.044" fill="none" stroke="url(#g11)" stroke-width="24" stroke-linecap="butt"/>
      <linearGradient id="g12" gradientUnits="userSpaceOnUse" x1="337.768" y1="405.044" x2="299.999" y2="420.207"><stop offset="0" stop-color="rgb(48 39 105)" stop-opacity="0.3600"/><stop offset="1" stop-color="rgb(48 39 105)" stop-opacity="0.3600"/></linearGradient>
      <path d="M 337.768 405.044 A 170 170 0 0 1 299.999 420.207" fill="none" stroke="url(#g12)" stroke-width="24" stroke-linecap="butt"/>
      <linearGradient id="g13" gradientUnits="userSpaceOnUse" x1="299.999" y1="420.207" x2="259.709" y2="425.960"><stop offset="0" stop-color="rgb(48 39 105)" stop-opacity="0.3600"/><stop offset="1" stop-color="rgb(48 39 105)" stop-opacity="0.3600"/></linearGradient>
      <path d="M 299.999 420.207 A 170 170 0 0 1 259.709 425.960" fill="none" stroke="url(#g13)" stroke-width="24" stroke-linecap="butt"/>
      <linearGradient id="g14" gradientUnits="userSpaceOnUse" x1="259.709" y1="425.960" x2="219.205" y2="421.970"><stop offset="0" stop-color="rgb(48 39 105)" stop-opacity="0.3600"/><stop offset="1" stop-color="rgb(48 39 105)" stop-opacity="0.3600"/></linearGradient>
      <path d="M 259.709 425.960 A 170 170 0 0 1 219.205 421.970" fill="none" stroke="url(#g14)" stroke-width="24" stroke-linecap="butt"/>
      <linearGradient id="g15" gradientUnits="userSpaceOnUse" x1="219.205" y1="421.970" x2="180.811" y2="408.468"><stop offset="0" stop-color="rgb(48 39 105)" stop-opacity="0.3600"/><stop offset="1" stop-color="rgb(48 39 105)" stop-opacity="0.3600"/></linearGradient>
      <path d="M 219.205 421.970 A 170 170 0 0 1 180.811 408.468" fill="none" stroke="url(#g15)" stroke-width="24" stroke-linecap="butt"/>
      <linearGradient id="g16" gradientUnits="userSpaceOnUse" x1="180.811" y1="408.468" x2="146.726" y2="386.228"><stop offset="0" stop-color="rgb(48 39 105)" stop-opacity="0.3600"/><stop offset="1" stop-color="rgb(48 39 105)" stop-opacity="0.3600"/></linearGradient>
      <path d="M 180.811 408.468 A 170 170 0 0 1 146.726 386.228" fill="none" stroke="url(#g16)" stroke-width="24" stroke-linecap="butt"/>
      <linearGradient id="g17" gradientUnits="userSpaceOnUse" x1="146.726" y1="386.228" x2="118.904" y2="356.523"><stop offset="0" stop-color="rgb(48 39 105)" stop-opacity="0.3600"/><stop offset="1" stop-color="rgb(48 39 105)" stop-opacity="0.3600"/></linearGradient>
      <path d="M 146.726 386.228 A 170 170 0 0 1 118.904 356.523" fill="none" stroke="url(#g17)" stroke-width="24" stroke-linecap="butt"/>
      <linearGradient id="g18" gradientUnits="userSpaceOnUse" x1="118.904" y1="356.523" x2="98.940" y2="321.056"><stop offset="0" stop-color="rgb(48 39 105)" stop-opacity="0.3600"/><stop offset="1" stop-color="rgb(48 39 105)" stop-opacity="0.3600"/></linearGradient>
      <path d="M 118.904 356.523 A 170 170 0 0 1 98.940 321.056" fill="none" stroke="url(#g18)" stroke-width="24" stroke-linecap="butt"/>
      <linearGradient id="g19" gradientUnits="userSpaceOnUse" x1="98.940" y1="321.056" x2="87.979" y2="281.861"><stop offset="0" stop-color="rgb(48 39 105)" stop-opacity="0.3600"/><stop offset="1" stop-color="rgb(48 39 105)" stop-opacity="0.3600"/></linearGradient>
      <path d="M 98.940 321.056 A 170 170 0 0 1 87.979 281.861" fill="none" stroke="url(#g19)" stroke-width="24" stroke-linecap="butt"/>
      <linearGradient id="g20" gradientUnits="userSpaceOnUse" x1="87.979" y1="281.861" x2="86.647" y2="241.184"><stop offset="0" stop-color="rgb(48 39 105)" stop-opacity="0.3600"/><stop offset="1" stop-color="rgb(48 39 105)" stop-opacity="0.3600"/></linearGradient>
      <path d="M 87.979 281.861 A 170 170 0 0 1 86.647 241.184" fill="none" stroke="url(#g20)" stroke-width="24" stroke-linecap="butt"/>
      <linearGradient id="g21" gradientUnits="userSpaceOnUse" x1="86.647" y1="241.184" x2="95.022" y2="201.355"><stop offset="0" stop-color="rgb(48 39 105)" stop-opacity="0.3600"/><stop offset="1" stop-color="rgb(48 39 105)" stop-opacity="0.3600"/></linearGradient>
      <path d="M 86.647 241.184 A 170 170 0 0 1 95.022 201.355" fill="none" stroke="url(#g21)" stroke-width="24" stroke-linecap="butt"/>
      <linearGradient id="g22" gradientUnits="userSpaceOnUse" x1="95.022" y1="201.355" x2="112.623" y2="164.659"><stop offset="0" stop-color="rgb(48 39 105)" stop-opacity="0.3600"/><stop offset="1" stop-color="rgb(48 39 105)" stop-opacity="0.3600"/></linearGradient>
      <path d="M 95.022 201.355 A 170 170 0 0 1 112.623 164.659" fill="none" stroke="url(#g22)" stroke-width="24" stroke-linecap="butt"/>
      <linearGradient id="g23" gradientUnits="userSpaceOnUse" x1="112.623" y1="164.659" x2="138.443" y2="133.198"><stop offset="0" stop-color="rgb(48 39 105)" stop-opacity="0.3600"/><stop offset="1" stop-color="rgb(48 39 105)" stop-opacity="0.3600"/></linearGradient>
      <path d="M 112.623 164.659 A 170 170 0 0 1 138.443 133.198" fill="none" stroke="url(#g23)" stroke-width="24" stroke-linecap="butt"/>
      <linearGradient id="g24" gradientUnits="userSpaceOnUse" x1="138.443" y1="133.198" x2="171.000" y2="108.776"><stop offset="0" stop-color="rgb(48 39 105)" stop-opacity="0.3600"/><stop offset="1" stop-color="rgb(48 39 105)" stop-opacity="0.3600"/></linearGradient>
      <path d="M 138.443 133.198 A 170 170 0 0 1 171.000 108.776" fill="none" stroke="url(#g24)" stroke-width="24" stroke-linecap="butt"/>
    </g>

    <g filter="blur(5px)">
      <linearGradient id="g25" gradientUnits="userSpaceOnUse" x1="256.000" y1="86.000" x2="296.407" y2="90.872"><stop offset="0" stop-color="rgb(169 155 255)" stop-opacity="0.0002"/><stop offset="1" stop-color="rgb(169 155 255)" stop-opacity="0.0115"/></linearGradient>
      <path d="M 256.000 86.000 A 170 170 0 0 1 296.407 90.872" fill="none" stroke="url(#g25)" stroke-width="33" stroke-linecap="butt"/>
      <linearGradient id="g26" gradientUnits="userSpaceOnUse" x1="296.407" y1="90.872" x2="334.497" y2="105.208"><stop offset="0" stop-color="rgb(169 155 255)" stop-opacity="0.0119"/><stop offset="1" stop-color="rgb(169 155 255)" stop-opacity="0.0576"/></linearGradient>
      <path d="M 296.407 90.872 A 170 170 0 0 1 334.497 105.208" fill="none" stroke="url(#g26)" stroke-width="33" stroke-linecap="butt"/>
      <linearGradient id="g27" gradientUnits="userSpaceOnUse" x1="334.497" y1="105.208" x2="368.089" y2="128.187"><stop offset="0" stop-color="rgb(169 155 255)" stop-opacity="0.0594"/><stop offset="1" stop-color="rgb(169 155 255)" stop-opacity="0.1257"/></linearGradient>
      <path d="M 334.497 105.208 A 170 170 0 0 1 368.089 128.187" fill="none" stroke="url(#g27)" stroke-width="33" stroke-linecap="butt"/>
      <linearGradient id="g28" gradientUnits="userSpaceOnUse" x1="368.089" y1="128.187" x2="395.256" y2="158.492"><stop offset="0" stop-color="rgb(169 155 255)" stop-opacity="0.1295"/><stop offset="1" stop-color="rgb(169 155 255)" stop-opacity="0.2375"/></linearGradient>
      <path d="M 368.089 128.187 A 170 170 0 0 1 395.256 158.492" fill="none" stroke="url(#g28)" stroke-width="33" stroke-linecap="butt"/>
      <linearGradient id="g29" gradientUnits="userSpaceOnUse" x1="395.256" y1="158.492" x2="414.441" y2="194.386"><stop offset="0" stop-color="rgb(169 155 255)" stop-opacity="0.2412"/><stop offset="1" stop-color="rgb(164 150 252)" stop-opacity="0.2800"/></linearGradient>
      <path d="M 395.256 158.492 A 170 170 0 0 1 414.441 194.386" fill="none" stroke="url(#g29)" stroke-width="33" stroke-linecap="butt"/>
      <linearGradient id="g30" gradientUnits="userSpaceOnUse" x1="414.441" y1="194.386" x2="424.546" y2="233.811"><stop offset="0" stop-color="rgb(164 149 252)" stop-opacity="0.2800"/><stop offset="1" stop-color="rgb(156 141 248)" stop-opacity="0.2800"/></linearGradient>
      <path d="M 414.441 194.386 A 170 170 0 0 1 424.546 233.811" fill="none" stroke="url(#g30)" stroke-width="33" stroke-linecap="butt"/>
      <linearGradient id="g31" gradientUnits="userSpaceOnUse" x1="424.546" y1="233.811" x2="424.990" y2="274.507"><stop offset="0" stop-color="rgb(155 141 248)" stop-opacity="0.2800"/><stop offset="1" stop-color="rgb(147 133 244)" stop-opacity="0.2800"/></linearGradient>
      <path d="M 424.546 233.811 A 170 170 0 0 1 424.990 274.507" fill="none" stroke="url(#g31)" stroke-width="33" stroke-linecap="butt"/>
      <linearGradient id="g32" gradientUnits="userSpaceOnUse" x1="424.990" y1="274.507" x2="415.748" y2="314.143"><stop offset="0" stop-color="rgb(147 132 244)" stop-opacity="0.2800"/><stop offset="1" stop-color="rgb(139 124 240)" stop-opacity="0.2800"/></linearGradient>
      <path d="M 424.990 274.507 A 170 170 0 0 1 415.748 314.143" fill="none" stroke="url(#g32)" stroke-width="33" stroke-linecap="butt"/>
      <linearGradient id="g33" gradientUnits="userSpaceOnUse" x1="415.748" y1="314.143" x2="397.350" y2="350.447"><stop offset="0" stop-color="rgb(139 124 240)" stop-opacity="0.2800"/><stop offset="1" stop-color="rgb(132 117 227)" stop-opacity="0.2800"/></linearGradient>
      <path d="M 415.748 314.143 A 170 170 0 0 1 397.350 350.447" fill="none" stroke="url(#g33)" stroke-width="33" stroke-linecap="butt"/>
      <linearGradient id="g34" gradientUnits="userSpaceOnUse" x1="397.350" y1="350.447" x2="370.850" y2="381.337"><stop offset="0" stop-color="rgb(132 117 227)" stop-opacity="0.2800"/><stop offset="1" stop-color="rgb(125 111 214)" stop-opacity="0.2800"/></linearGradient>
      <path d="M 397.350 350.447 A 170 170 0 0 1 370.850 381.337" fill="none" stroke="url(#g34)" stroke-width="33" stroke-linecap="butt"/>
      <linearGradient id="g35" gradientUnits="userSpaceOnUse" x1="370.850" y1="381.337" x2="337.768" y2="405.044"><stop offset="0" stop-color="rgb(125 110 214)" stop-opacity="0.2800"/><stop offset="1" stop-color="rgb(118 104 201)" stop-opacity="0.2800"/></linearGradient>
      <path d="M 370.850 381.337 A 170 170 0 0 1 337.768 405.044" fill="none" stroke="url(#g35)" stroke-width="33" stroke-linecap="butt"/>
      <linearGradient id="g36" gradientUnits="userSpaceOnUse" x1="337.768" y1="405.044" x2="299.999" y2="420.207"><stop offset="0" stop-color="rgb(118 104 201)" stop-opacity="0.2800"/><stop offset="1" stop-color="rgb(111 97 188)" stop-opacity="0.2800"/></linearGradient>
      <path d="M 337.768 405.044 A 170 170 0 0 1 299.999 420.207" fill="none" stroke="url(#g36)" stroke-width="33" stroke-linecap="butt"/>
      <linearGradient id="g37" gradientUnits="userSpaceOnUse" x1="299.999" y1="420.207" x2="259.709" y2="425.960"><stop offset="0" stop-color="rgb(111 97 188)" stop-opacity="0.2800"/><stop offset="1" stop-color="rgb(113 97 177)" stop-opacity="0.2800"/></linearGradient>
      <path d="M 299.999 420.207 A 170 170 0 0 1 259.709 425.960" fill="none" stroke="url(#g37)" stroke-width="33" stroke-linecap="butt"/>
      <linearGradient id="g38" gradientUnits="userSpaceOnUse" x1="259.709" y1="425.960" x2="219.205" y2="421.970"><stop offset="0" stop-color="rgb(113 97 177)" stop-opacity="0.2800"/><stop offset="1" stop-color="rgb(114 97 166)" stop-opacity="0.2800"/></linearGradient>
      <path d="M 259.709 425.960 A 170 170 0 0 1 219.205 421.970" fill="none" stroke="url(#g38)" stroke-width="33" stroke-linecap="butt"/>
      <linearGradient id="g39" gradientUnits="userSpaceOnUse" x1="219.205" y1="421.970" x2="180.811" y2="408.468"><stop offset="0" stop-color="rgb(115 97 166)" stop-opacity="0.2800"/><stop offset="1" stop-color="rgb(116 97 155)" stop-opacity="0.2800"/></linearGradient>
      <path d="M 219.205 421.970 A 170 170 0 0 1 180.811 408.468" fill="none" stroke="url(#g39)" stroke-width="33" stroke-linecap="butt"/>
      <linearGradient id="g40" gradientUnits="userSpaceOnUse" x1="180.811" y1="408.468" x2="146.726" y2="386.228"><stop offset="0" stop-color="rgb(116 97 155)" stop-opacity="0.2800"/><stop offset="1" stop-color="rgb(118 97 144)" stop-opacity="0.2800"/></linearGradient>
      <path d="M 180.811 408.468 A 170 170 0 0 1 146.726 386.228" fill="none" stroke="url(#g40)" stroke-width="33" stroke-linecap="butt"/>
      <linearGradient id="g41" gradientUnits="userSpaceOnUse" x1="146.726" y1="386.228" x2="118.904" y2="356.523"><stop offset="0" stop-color="rgb(118 97 144)" stop-opacity="0.2800"/><stop offset="1" stop-color="rgb(130 101 136)" stop-opacity="0.2800"/></linearGradient>
      <path d="M 146.726 386.228 A 170 170 0 0 1 118.904 356.523" fill="none" stroke="url(#g41)" stroke-width="33" stroke-linecap="butt"/>
      <linearGradient id="g42" gradientUnits="userSpaceOnUse" x1="118.904" y1="356.523" x2="98.940" y2="321.056"><stop offset="0" stop-color="rgb(131 101 136)" stop-opacity="0.2800"/><stop offset="1" stop-color="rgb(143 106 128)" stop-opacity="0.2800"/></linearGradient>
      <path d="M 118.904 356.523 A 170 170 0 0 1 98.940 321.056" fill="none" stroke="url(#g42)" stroke-width="33" stroke-linecap="butt"/>
      <linearGradient id="g43" gradientUnits="userSpaceOnUse" x1="98.940" y1="321.056" x2="87.979" y2="281.861"><stop offset="0" stop-color="rgb(144 106 127)" stop-opacity="0.2800"/><stop offset="1" stop-color="rgb(156 110 119)" stop-opacity="0.2800"/></linearGradient>
      <path d="M 98.940 321.056 A 170 170 0 0 1 87.979 281.861" fill="none" stroke="url(#g43)" stroke-width="33" stroke-linecap="butt"/>
      <linearGradient id="g44" gradientUnits="userSpaceOnUse" x1="87.979" y1="281.861" x2="86.647" y2="241.184"><stop offset="0" stop-color="rgb(156 110 119)" stop-opacity="0.2800"/><stop offset="1" stop-color="rgb(169 115 112)" stop-opacity="0.2800"/></linearGradient>
      <path d="M 87.979 281.861 A 170 170 0 0 1 86.647 241.184" fill="none" stroke="url(#g44)" stroke-width="33" stroke-linecap="butt"/>
      <linearGradient id="g45" gradientUnits="userSpaceOnUse" x1="86.647" y1="241.184" x2="95.022" y2="201.355"><stop offset="0" stop-color="rgb(169 115 112)" stop-opacity="0.2800"/><stop offset="1" stop-color="rgb(183 119 108)" stop-opacity="0.2800"/></linearGradient>
      <path d="M 86.647 241.184 A 170 170 0 0 1 95.022 201.355" fill="none" stroke="url(#g45)" stroke-width="33" stroke-linecap="butt"/>
      <linearGradient id="g46" gradientUnits="userSpaceOnUse" x1="95.022" y1="201.355" x2="112.623" y2="164.659"><stop offset="0" stop-color="rgb(183 120 107)" stop-opacity="0.2800"/><stop offset="1" stop-color="rgb(196 124 103)" stop-opacity="0.2800"/></linearGradient>
      <path d="M 95.022 201.355 A 170 170 0 0 1 112.623 164.659" fill="none" stroke="url(#g46)" stroke-width="33" stroke-linecap="butt"/>
      <linearGradient id="g47" gradientUnits="userSpaceOnUse" x1="112.623" y1="164.659" x2="138.443" y2="133.198"><stop offset="0" stop-color="rgb(197 124 103)" stop-opacity="0.2800"/><stop offset="1" stop-color="rgb(210 131 99)" stop-opacity="0.2800"/></linearGradient>
      <path d="M 112.623 164.659 A 170 170 0 0 1 138.443 133.198" fill="none" stroke="url(#g47)" stroke-width="33" stroke-linecap="butt"/>
      <linearGradient id="g48" gradientUnits="userSpaceOnUse" x1="138.443" y1="133.198" x2="171.000" y2="108.776"><stop offset="0" stop-color="rgb(210 131 99)" stop-opacity="0.2800"/><stop offset="1" stop-color="rgb(224 138 95)" stop-opacity="0.2800"/></linearGradient>
      <path d="M 138.443 133.198 A 170 170 0 0 1 171.000 108.776" fill="none" stroke="url(#g48)" stroke-width="33" stroke-linecap="butt"/>
      <path d="M 0 -1 A 1 1 0 0 1 0 1 Z" fill="rgb(224 138 95)" fill-opacity="0.28" transform="translate(171 108.776) rotate(-30.2) scale(16.5)"/>
    </g>

    <g>
      <linearGradient id="g49" gradientUnits="userSpaceOnUse" x1="256.000" y1="86.000" x2="296.407" y2="90.872"><stop offset="0" stop-color="rgb(169 155 255)" stop-opacity="0.0007"/><stop offset="1" stop-color="rgb(169 155 255)" stop-opacity="0.0410"/></linearGradient>
      <path d="M 256.000 86.000 A 170 170 0 0 1 296.407 90.872" fill="none" stroke="url(#g49)" stroke-width="24" stroke-linecap="butt"/>
      <linearGradient id="g50" gradientUnits="userSpaceOnUse" x1="296.407" y1="90.872" x2="334.497" y2="105.208"><stop offset="0" stop-color="rgb(169 155 255)" stop-opacity="0.0424"/><stop offset="1" stop-color="rgb(169 155 255)" stop-opacity="0.2057"/></linearGradient>
      <path d="M 296.407 90.872 A 170 170 0 0 1 334.497 105.208" fill="none" stroke="url(#g50)" stroke-width="24" stroke-linecap="butt"/>
      <linearGradient id="g51" gradientUnits="userSpaceOnUse" x1="334.497" y1="105.208" x2="368.089" y2="128.187"><stop offset="0" stop-color="rgb(169 155 255)" stop-opacity="0.2123"/><stop offset="1" stop-color="rgb(169 155 255)" stop-opacity="0.4491"/></linearGradient>
      <path d="M 334.497 105.208 A 170 170 0 0 1 368.089 128.187" fill="none" stroke="url(#g51)" stroke-width="24" stroke-linecap="butt"/>
      <linearGradient id="g52" gradientUnits="userSpaceOnUse" x1="368.089" y1="128.187" x2="395.256" y2="158.492"><stop offset="0" stop-color="rgb(169 155 255)" stop-opacity="0.4624"/><stop offset="1" stop-color="rgb(169 155 255)" stop-opacity="0.8482"/></linearGradient>
      <path d="M 368.089 128.187 A 170 170 0 0 1 395.256 158.492" fill="none" stroke="url(#g52)" stroke-width="24" stroke-linecap="butt"/>
      <linearGradient id="g53" gradientUnits="userSpaceOnUse" x1="395.256" y1="158.492" x2="414.441" y2="194.386"><stop offset="0" stop-color="rgb(169 155 255)" stop-opacity="0.8615"/><stop offset="1" stop-color="rgb(164 150 252)" stop-opacity="1.0000"/></linearGradient>
      <path d="M 395.256 158.492 A 170 170 0 0 1 414.441 194.386" fill="none" stroke="url(#g53)" stroke-width="24" stroke-linecap="butt"/>
      <linearGradient id="g54" gradientUnits="userSpaceOnUse" x1="414.441" y1="194.386" x2="425.169" y2="239.214"><stop offset="0" stop-color="rgb(164 149 252)" stop-opacity="1.0000"/><stop offset="1" stop-color="rgb(155 140 248)" stop-opacity="1.0000"/></linearGradient>
      <path d="M 414.441 194.386 A 170 170 0 0 1 425.169 239.214" fill="none" stroke="url(#g54)" stroke-width="24" stroke-linecap="butt"/>
      <linearGradient id="g55" gradientUnits="userSpaceOnUse" x1="424.546" y1="233.811" x2="424.311" y2="279.904"><stop offset="0" stop-color="rgb(155 141 248)" stop-opacity="1.0000"/><stop offset="1" stop-color="rgb(146 132 244)" stop-opacity="1.0000"/></linearGradient>
      <path d="M 424.546 233.811 A 170 170 0 0 1 424.311 279.904" fill="none" stroke="url(#g55)" stroke-width="24" stroke-linecap="butt"/>
      <linearGradient id="g56" gradientUnits="userSpaceOnUse" x1="424.990" y1="274.507" x2="413.806" y2="319.224"><stop offset="0" stop-color="rgb(147 132 244)" stop-opacity="1.0000"/><stop offset="1" stop-color="rgb(138 123 238)" stop-opacity="1.0000"/></linearGradient>
      <path d="M 424.990 274.507 A 170 170 0 0 1 413.806 319.224" fill="none" stroke="url(#g56)" stroke-width="24" stroke-linecap="butt"/>
      <linearGradient id="g57" gradientUnits="userSpaceOnUse" x1="415.748" y1="314.143" x2="394.256" y2="354.921"><stop offset="0" stop-color="rgb(139 124 240)" stop-opacity="1.0000"/><stop offset="1" stop-color="rgb(131 116 225)" stop-opacity="1.0000"/></linearGradient>
      <path d="M 415.748 314.143 A 170 170 0 0 1 394.256 354.921" fill="none" stroke="url(#g57)" stroke-width="24" stroke-linecap="butt"/>
      <linearGradient id="g58" gradientUnits="userSpaceOnUse" x1="397.350" y1="350.447" x2="366.782" y2="384.947"><stop offset="0" stop-color="rgb(132 117 227)" stop-opacity="1.0000"/><stop offset="1" stop-color="rgb(124 110 212)" stop-opacity="1.0000"/></linearGradient>
      <path d="M 397.350 350.447 A 170 170 0 0 1 366.782 384.947" fill="none" stroke="url(#g58)" stroke-width="24" stroke-linecap="butt"/>
      <linearGradient id="g59" gradientUnits="userSpaceOnUse" x1="370.850" y1="381.337" x2="332.958" y2="407.583"><stop offset="0" stop-color="rgb(125 110 214)" stop-opacity="1.0000"/><stop offset="1" stop-color="rgb(117 103 199)" stop-opacity="1.0000"/></linearGradient>
      <path d="M 370.850 381.337 A 170 170 0 0 1 332.958 407.583" fill="none" stroke="url(#g59)" stroke-width="24" stroke-linecap="butt"/>
      <linearGradient id="g60" gradientUnits="userSpaceOnUse" x1="337.768" y1="405.044" x2="294.723" y2="421.531"><stop offset="0" stop-color="rgb(118 104 201)" stop-opacity="1.0000"/><stop offset="1" stop-color="rgb(111 97 187)" stop-opacity="1.0000"/></linearGradient>
      <path d="M 337.768 405.044 A 170 170 0 0 1 294.723 421.531" fill="none" stroke="url(#g60)" stroke-width="24" stroke-linecap="butt"/>
      <linearGradient id="g61" gradientUnits="userSpaceOnUse" x1="299.999" y1="420.207" x2="254.269" y2="425.991"><stop offset="0" stop-color="rgb(111 97 188)" stop-opacity="1.0000"/><stop offset="1" stop-color="rgb(113 97 176)" stop-opacity="1.0000"/></linearGradient>
      <path d="M 299.999 420.207 A 170 170 0 0 1 254.269 425.991" fill="none" stroke="url(#g61)" stroke-width="24" stroke-linecap="butt"/>
      <linearGradient id="g62" gradientUnits="userSpaceOnUse" x1="259.709" y1="425.960" x2="213.914" y2="420.708"><stop offset="0" stop-color="rgb(113 97 177)" stop-opacity="1.0000"/><stop offset="1" stop-color="rgb(115 97 165)" stop-opacity="1.0000"/></linearGradient>
      <path d="M 259.709 425.960 A 170 170 0 0 1 213.914 420.708" fill="none" stroke="url(#g62)" stroke-width="24" stroke-linecap="butt"/>
      <linearGradient id="g63" gradientUnits="userSpaceOnUse" x1="219.205" y1="421.970" x2="175.972" y2="405.985"><stop offset="0" stop-color="rgb(115 97 166)" stop-opacity="1.0000"/><stop offset="1" stop-color="rgb(116 97 154)" stop-opacity="1.0000"/></linearGradient>
      <path d="M 219.205 421.970 A 170 170 0 0 1 175.972 405.985" fill="none" stroke="url(#g63)" stroke-width="24" stroke-linecap="butt"/>
      <linearGradient id="g64" gradientUnits="userSpaceOnUse" x1="180.811" y1="408.468" x2="142.616" y2="382.665"><stop offset="0" stop-color="rgb(116 97 155)" stop-opacity="1.0000"/><stop offset="1" stop-color="rgb(119 98 143)" stop-opacity="1.0000"/></linearGradient>
      <path d="M 180.811 408.468 A 170 170 0 0 1 142.616 382.665" fill="none" stroke="url(#g64)" stroke-width="24" stroke-linecap="butt"/>
      <linearGradient id="g65" gradientUnits="userSpaceOnUse" x1="146.726" y1="386.228" x2="115.759" y2="352.085"><stop offset="0" stop-color="rgb(118 97 144)" stop-opacity="1.0000"/><stop offset="1" stop-color="rgb(132 102 135)" stop-opacity="1.0000"/></linearGradient>
      <path d="M 146.726 386.228 A 170 170 0 0 1 115.759 352.085" fill="none" stroke="url(#g65)" stroke-width="24" stroke-linecap="butt"/>
      <linearGradient id="g66" gradientUnits="userSpaceOnUse" x1="118.904" y1="356.523" x2="96.940" y2="315.998"><stop offset="0" stop-color="rgb(131 101 136)" stop-opacity="1.0000"/><stop offset="1" stop-color="rgb(145 106 127)" stop-opacity="1.0000"/></linearGradient>
      <path d="M 118.904 356.523 A 170 170 0 0 1 96.940 315.998" fill="none" stroke="url(#g66)" stroke-width="24" stroke-linecap="butt"/>
      <linearGradient id="g67" gradientUnits="userSpaceOnUse" x1="98.940" y1="321.056" x2="87.237" y2="276.472"><stop offset="0" stop-color="rgb(144 106 127)" stop-opacity="1.0000"/><stop offset="1" stop-color="rgb(157 111 118)" stop-opacity="1.0000"/></linearGradient>
      <path d="M 98.940 321.056 A 170 170 0 0 1 87.237 276.472" fill="none" stroke="url(#g67)" stroke-width="24" stroke-linecap="butt"/>
      <linearGradient id="g68" gradientUnits="userSpaceOnUse" x1="87.979" y1="281.861" x2="87.208" y2="235.773"><stop offset="0" stop-color="rgb(156 110 119)" stop-opacity="1.0000"/><stop offset="1" stop-color="rgb(171 115 112)" stop-opacity="1.0000"/></linearGradient>
      <path d="M 87.979 281.861 A 170 170 0 0 1 87.208 235.773" fill="none" stroke="url(#g68)" stroke-width="24" stroke-linecap="butt"/>
      <linearGradient id="g69" gradientUnits="userSpaceOnUse" x1="86.647" y1="241.184" x2="96.852" y2="196.233"><stop offset="0" stop-color="rgb(169 115 112)" stop-opacity="1.0000"/><stop offset="1" stop-color="rgb(184 120 107)" stop-opacity="1.0000"/></linearGradient>
      <path d="M 86.647 241.184 A 170 170 0 0 1 96.852 196.233" fill="none" stroke="url(#g69)" stroke-width="24" stroke-linecap="butt"/>
      <linearGradient id="g70" gradientUnits="userSpaceOnUse" x1="95.022" y1="201.355" x2="115.619" y2="160.119"><stop offset="0" stop-color="rgb(183 120 107)" stop-opacity="1.0000"/><stop offset="1" stop-color="rgb(198 125 102)" stop-opacity="1.0000"/></linearGradient>
      <path d="M 95.022 201.355 A 170 170 0 0 1 115.619 160.119" fill="none" stroke="url(#g70)" stroke-width="24" stroke-linecap="butt"/>
      <linearGradient id="g71" gradientUnits="userSpaceOnUse" x1="112.623" y1="164.659" x2="142.432" y2="129.500"><stop offset="0" stop-color="rgb(197 124 103)" stop-opacity="1.0000"/><stop offset="1" stop-color="rgb(212 132 98)" stop-opacity="1.0000"/></linearGradient>
      <path d="M 112.623 164.659 A 170 170 0 0 1 142.432 129.500" fill="none" stroke="url(#g71)" stroke-width="24" stroke-linecap="butt"/>
      <linearGradient id="g72" gradientUnits="userSpaceOnUse" x1="138.443" y1="133.198" x2="171.000" y2="108.776"><stop offset="0" stop-color="rgb(210 131 99)" stop-opacity="1.0000"/><stop offset="1" stop-color="rgb(224 138 95)" stop-opacity="1.0000"/></linearGradient>
      <path d="M 138.443 133.198 A 170 170 0 0 1 171.000 108.776" fill="none" stroke="url(#g72)" stroke-width="24" stroke-linecap="butt"/>
      <path d="M 0 -1 A 1 1 0 0 1 0 1 Z" fill="rgb(224 138 95)" transform="translate(171 108.776) rotate(-30.2) scale(12)"/>
    </g>

    <circle cx="256" cy="256" r="80.39" fill="rgb(255 229 208)" fill-opacity="0.10"/>
    <circle cx="256" cy="256" r="47.63" fill="rgb(255 237 218)" fill-opacity="0.22"/>
    <circle cx="256" cy="256" r="26.80" fill="rgb(255 245 232)" fill-opacity="0.55"/>
    <circle cx="256" cy="256" r="13.41" fill="rgb(255 255 255)" fill-opacity="0.95"/>
  </g>
</svg>
